<?xml version="1.0" encoding="UTF-8" standalone="no"?>
<svg
   xmlns:dc="http://purl.org/dc/elements/1.1/"
   xmlns:cc="http://creativecommons.org/ns#"
   xmlns:rdf="http://www.w3.org/1999/02/22-rdf-syntax-ns#"
   xmlns:svg="http://www.w3.org/2000/svg"
   xmlns="http://www.w3.org/2000/svg"
   xmlns:xlink="http://www.w3.org/1999/xlink"
   xmlns:sodipodi="http://sodipodi.sourceforge.net/DTD/sodipodi-0.dtd"
   xmlns:inkscape="http://www.inkscape.org/namespaces/inkscape"
   width="90.646751mm"
   height="85.119339mm"
   viewBox="0 0 90.646751 85.119339"
   version="1.1"
   id="svg8"
   inkscape:version="1.0 (4035a4fb49, 2020-05-01)"
   sodipodi:docname="logo.svg">
  <defs
     id="defs2">
    <inkscape:perspective
       sodipodi:type="inkscape:persp3d"
       inkscape:vp_x="-96.504214 : -76.047528 : 1"
       inkscape:vp_y="0 : 1000 : 0"
       inkscape:vp_z="210 : -63.380667 : 1"
       inkscape:persp3d-origin="105 : -112.88067 : 1"
       id="perspective16" />
    <rect
       x="25.070822"
       y="64.694969"
       width="108.78169"
       height="26.467363"
       id="rect12" />
    <linearGradient
       id="linearGradient841"
       inkscape:collect="always">
      <stop
         id="stop837"
         offset="0"
         style="stop-color:#75409e;stop-opacity:1" />
      <stop
         id="stop839"
         offset="1"
         style="stop-color:#e0a1c0;stop-opacity:1" />
    </linearGradient>
    <linearGradient
       inkscape:collect="always"
       xlink:href="#linearGradient841"
       id="linearGradient1044"
       x1="78.803604"
       y1="110.83423"
       x2="115.79626"
       y2="110.83423"
       gradientUnits="userSpaceOnUse"
       gradientTransform="matrix(0.76219335,0,0,0.76219335,23.138588,26.357077)" />
    <linearGradient
       inkscape:collect="always"
       xlink:href="#linearGradient841"
       id="linearGradient1052"
       x1="59.552288"
       y1="110.83406"
       x2="135.04771"
       y2="110.83406"
       gradientUnits="userSpaceOnUse"
       gradientTransform="matrix(0.76219335,0,0,0.76219335,23.138588,26.357077)" />
  </defs>
  <sodipodi:namedview
     id="base"
     pagecolor="#ffffff"
     bordercolor="#666666"
     borderopacity="1.0"
     inkscape:pageopacity="0.0"
     inkscape:pageshadow="2"
     inkscape:zoom="1.4"
     inkscape:cx="190.24076"
     inkscape:cy="235.50442"
     inkscape:document-units="mm"
     inkscape:current-layer="layer1"
     inkscape:document-rotation="0"
     showgrid="false"
     inkscape:snap-global="false"
     inkscape:window-width="1920"
     inkscape:window-height="1052"
     inkscape:window-x="0"
     inkscape:window-y="0"
     inkscape:window-maximized="1"
     fit-margin-top="3"
     fit-margin-left="5"
     fit-margin-bottom="3"
     fit-margin-right="5" />
  <metadata
     id="metadata5">
    <rdf:RDF>
      <cc:Work
         rdf:about="">
        <dc:format>image/svg+xml</dc:format>
        <dc:type
           rdf:resource="http://purl.org/dc/dcmitype/StillImage" />
        <dc:title></dc:title>
      </cc:Work>
    </rdf:RDF>
  </metadata>
  <g
     inkscape:label="Layer 1"
     inkscape:groupmode="layer"
     id="layer1"
     transform="translate(-51.976627,-79.062997)">
    <g
       style="font-style:normal;font-weight:normal;font-size:16.9333px;line-height:1.25;font-family:sans-serif;letter-spacing:0px;word-spacing:0px;white-space:pre;shape-inside:url(#rect12);fill:#013244;fill-opacity:0.8;stroke:none"
       id="text10"
       transform="translate(30.212984,77.028383)"
       aria-label="Inf inileap">
      <path
         id="path849"
         style="font-style:normal;font-variant:normal;font-weight:bold;font-stretch:normal;font-size:16.9333px;font-family:Comfortaa;-inkscape-font-specification:'Comfortaa Bold';fill:#013244;fill-opacity:0.8"
         d="m 27.644174,80.19156 q -0.372532,0 -0.626532,-0.253999 -0.253999,-0.254 -0.253999,-0.626533 V 67.847184 q 0,-0.389466 0.253999,-0.626532 0.254,-0.253999 0.626532,-0.253999 0.389466,0 0.626532,0.253999 0.254,0.237066 0.254,0.626532 v 11.463844 q 0,0.372533 -0.254,0.626533 -0.237066,0.253999 -0.626532,0.253999 z" />
      <path
         id="path851"
         style="font-style:normal;font-variant:normal;font-weight:bold;font-stretch:normal;font-size:16.9333px;font-family:Comfortaa;-inkscape-font-specification:'Comfortaa Bold';fill:#013244;fill-opacity:0.8"
         d="m 39.5652,80.208493 q -0.372533,0 -0.626532,-0.237066 -0.237067,-0.253999 -0.237067,-0.626532 v -4.165592 q 0,-0.965198 -0.355599,-1.574797 -0.355599,-0.609598 -0.965198,-0.897465 -0.592666,-0.304799 -1.371597,-0.304799 -0.711199,0 -1.286931,0.287866 -0.575732,0.287866 -0.914398,0.778932 -0.338666,0.474132 -0.338666,1.100664 h -1.066798 q 0,-1.066797 0.507999,-1.896529 0.524932,-0.846665 1.422397,-1.337731 0.897465,-0.491066 2.015063,-0.491066 1.168397,0 2.082796,0.507999 0.931331,0.491066 1.456263,1.456264 0.541866,0.965198 0.541866,2.370662 v 4.165592 q 0,0.372533 -0.254,0.626532 -0.237066,0.237066 -0.609598,0.237066 z m -6.959587,0 q -0.372532,0 -0.626532,-0.237066 -0.237066,-0.253999 -0.237066,-0.626532 v -7.552252 q 0,-0.389466 0.237066,-0.626532 0.254,-0.237066 0.626532,-0.237066 0.389466,0 0.626532,0.237066 0.237067,0.237066 0.237067,0.626532 v 7.552252 q 0,0.372533 -0.237067,0.626532 -0.237066,0.237066 -0.626532,0.237066 z" />
      <path
         id="path853"
         style="font-style:normal;font-variant:normal;font-weight:bold;font-stretch:normal;font-size:16.9333px;font-family:Comfortaa;-inkscape-font-specification:'Comfortaa Bold';fill:#013244;fill-opacity:0.8"
         d="m 44.289577,80.19156 q -0.321732,0 -0.575732,-0.237066 -0.253999,-0.237066 -0.253999,-0.626532 v -8.348117 q 0,-1.219198 0.474132,-2.116663 0.491066,-0.897465 1.354664,-1.38853 0.863598,-0.507999 1.99813,-0.507999 0.372532,0 0.609598,0.220133 0.254,0.220133 0.254,0.558799 0,0.321732 -0.254,0.558798 -0.237066,0.220133 -0.609598,0.220133 -0.626533,0 -1.100665,0.287866 -0.474132,0.287867 -0.745065,0.795866 -0.254,0.507999 -0.254,1.202264 v 8.51745 q 0,0.389466 -0.237066,0.626532 -0.237066,0.237066 -0.660399,0.237066 z m -1.557863,-7.467585 q -0.355599,0 -0.575732,-0.2032 -0.220133,-0.203199 -0.220133,-0.507999 0,-0.338666 0.220133,-0.541865 0.220133,-0.2032 0.575732,-0.2032 h 4.182525 q 0.355599,0 0.575732,0.2032 0.220133,0.203199 0.220133,0.541865 0,0.3048 -0.220133,0.507999 -0.220133,0.2032 -0.575732,0.2032 z" />
      <path
         id="path855"
         style="font-style:normal;font-variant:normal;font-weight:bold;font-stretch:normal;font-size:16.9333px;font-family:Comfortaa;-inkscape-font-specification:'Comfortaa Bold';fill:#013244;fill-opacity:0.8"
         d="m 51.210771,80.19156 q -0.372532,0 -0.626532,-0.237066 -0.237066,-0.254 -0.237066,-0.626532 v -7.535319 q 0,-0.389466 0.237066,-0.626532 0.254,-0.237066 0.626532,-0.237066 0.389466,0 0.626532,0.237066 0.237067,0.237066 0.237067,0.626532 v 7.535319 q 0,0.372532 -0.237067,0.626532 -0.237066,0.237066 -0.626532,0.237066 z m 0,-10.769579 q -0.457199,0 -0.795865,-0.321732 -0.321733,-0.338666 -0.321733,-0.795866 0,-0.457199 0.321733,-0.778931 0.338666,-0.338666 0.795865,-0.338666 0.457199,0 0.778932,0.338666 0.338666,0.321732 0.338666,0.778931 0,0.4572 -0.338666,0.795866 -0.321733,0.321732 -0.778932,0.321732 z" />
      <path
         id="path857"
         style="font-style:normal;font-variant:normal;font-weight:bold;font-stretch:normal;font-size:16.9333px;font-family:Comfortaa;-inkscape-font-specification:'Comfortaa Bold';fill:#013244;fill-opacity:0.8"
         d="m 63.114849,80.208493 q -0.372532,0 -0.626532,-0.237066 -0.237066,-0.253999 -0.237066,-0.626532 v -4.165592 q 0,-0.965198 -0.355599,-1.574797 -0.3556,-0.609598 -0.965198,-0.897465 -0.592666,-0.304799 -1.371598,-0.304799 -0.711198,0 -1.28693,0.287866 -0.575733,0.287866 -0.914399,0.778932 -0.338666,0.474132 -0.338666,1.100664 h -1.066798 q 0,-1.066797 0.507999,-1.896529 0.524933,-0.846665 1.422398,-1.337731 0.897465,-0.491066 2.015062,-0.491066 1.168398,0 2.082796,0.507999 0.931332,0.491066 1.456264,1.456264 0.541866,0.965198 0.541866,2.370662 v 4.165592 q 0,0.372533 -0.254,0.626532 -0.237066,0.237066 -0.609599,0.237066 z m -6.959586,0 q -0.372533,0 -0.626532,-0.237066 -0.237066,-0.253999 -0.237066,-0.626532 v -7.552252 q 0,-0.389466 0.237066,-0.626532 0.253999,-0.237066 0.626532,-0.237066 0.389466,0 0.626532,0.237066 0.237066,0.237066 0.237066,0.626532 v 7.552252 q 0,0.372533 -0.237066,0.626532 -0.237066,0.237066 -0.626532,0.237066 z" />
      <path
         id="path859"
         style="font-style:normal;font-variant:normal;font-weight:bold;font-stretch:normal;font-size:16.9333px;font-family:Comfortaa;-inkscape-font-specification:'Comfortaa Bold';fill:#013244;fill-opacity:0.8"
         d="m 67.873094,80.19156 q -0.372532,0 -0.626532,-0.237066 -0.237066,-0.254 -0.237066,-0.626532 v -7.535319 q 0,-0.389466 0.237066,-0.626532 0.254,-0.237066 0.626532,-0.237066 0.389466,0 0.626532,0.237066 0.237067,0.237066 0.237067,0.626532 v 7.535319 q 0,0.372532 -0.237067,0.626532 -0.237066,0.237066 -0.626532,0.237066 z m 0,-10.769579 q -0.457199,0 -0.795865,-0.321732 -0.321733,-0.338666 -0.321733,-0.795866 0,-0.457199 0.321733,-0.778931 0.338666,-0.338666 0.795865,-0.338666 0.457199,0 0.778932,0.338666 0.338666,0.321732 0.338666,0.778931 0,0.4572 -0.338666,0.795866 -0.321733,0.321732 -0.778932,0.321732 z" />
      <path
         id="path861"
         style="font-style:normal;font-variant:normal;font-weight:bold;font-stretch:normal;font-size:16.9333px;font-family:Comfortaa;-inkscape-font-specification:'Comfortaa Bold';fill:#013244;fill-opacity:0.8"
         d="m 74.155315,80.19156 q -0.745065,0 -1.320798,-0.406399 Q 72.258785,79.378762 71.937053,78.684496 71.61532,77.973298 71.61532,77.0589 v -9.245582 q 0,-0.372533 0.237066,-0.609599 0.237066,-0.237066 0.609599,-0.237066 0.372532,0 0.609599,0.237066 0.237066,0.237066 0.237066,0.609599 V 77.0589 q 0,0.626532 0.237066,1.032931 0.237066,0.406399 0.609599,0.406399 h 0.423332 q 0.338666,0 0.541866,0.237066 0.220133,0.237066 0.220133,0.609599 0,0.372533 -0.321733,0.609599 -0.321733,0.237066 -0.829732,0.237066 z" />
      <path
         id="path863"
         style="font-style:normal;font-variant:normal;font-weight:bold;font-stretch:normal;font-size:16.9333px;font-family:Comfortaa;-inkscape-font-specification:'Comfortaa Bold';fill:#013244;fill-opacity:0.8"
         d="m 80.877812,80.259293 q -1.405464,0 -2.506128,-0.592665 -1.083732,-0.609599 -1.710264,-1.659464 -0.609598,-1.066798 -0.609598,-2.438395 0,-1.38853 0.575732,-2.438395 0.592665,-1.066798 1.625597,-1.659463 1.032931,-0.609599 2.370662,-0.609599 1.320797,0 2.269062,0.592665 0.948265,0.575732 1.43933,1.608664 0.507999,1.015998 0.507999,2.353728 0,0.321733 -0.220133,0.541866 -0.220133,0.2032 -0.558799,0.2032 h -6.824119 v -1.354664 h 6.77332 l -0.694266,0.474132 q -0.01693,-0.846665 -0.338666,-1.507064 -0.321732,-0.677332 -0.914398,-1.066798 -0.592665,-0.389465 -1.43933,-0.389465 -0.965199,0 -1.659464,0.423332 -0.677332,0.423333 -1.032931,1.168398 -0.355599,0.728132 -0.355599,1.659463 0,0.931332 0.423332,1.659464 0.423333,0.728131 1.168398,1.151464 0.745065,0.423332 1.710263,0.423332 0.524932,0 1.066798,-0.186266 0.558799,-0.203199 0.897465,-0.457199 0.253999,-0.186266 0.541865,-0.186266 0.3048,-0.01693 0.524933,0.169333 0.287866,0.253999 0.304799,0.558799 0.01693,0.304799 -0.270933,0.524932 -0.575732,0.457199 -1.43933,0.745065 -0.846665,0.287866 -1.625597,0.287866 z" />
      <path
         id="path865"
         style="font-style:normal;font-variant:normal;font-weight:bold;font-stretch:normal;font-size:16.9333px;font-family:Comfortaa;-inkscape-font-specification:'Comfortaa Bold';fill:#013244;fill-opacity:0.8"
         d="m 90.563622,80.259293 q -1.23613,0 -2.218262,-0.609599 -0.982131,-0.626532 -1.557863,-1.676396 -0.558799,-1.066798 -0.558799,-2.404529 0,-1.337731 0.609598,-2.404528 0.626533,-1.066798 1.676397,-1.676397 1.066798,-0.626532 2.387595,-0.626532 1.320798,0 2.370662,0.626532 1.049865,0.609599 1.659464,1.676397 0.626532,1.066797 0.626532,2.404528 h -0.660399 q 0,1.337731 -0.575732,2.404529 -0.558799,1.049864 -1.54093,1.676396 -0.982132,0.609599 -2.218263,0.609599 z m 0.338666,-1.523997 q 0.863599,0 1.540931,-0.406399 0.677332,-0.423332 1.066798,-1.134531 0.389466,-0.728132 0.389466,-1.625597 0,-0.914398 -0.389466,-1.625597 -0.389466,-0.728132 -1.066798,-1.134531 -0.677332,-0.423332 -1.540931,-0.423332 -0.846665,0 -1.54093,0.423332 -0.677332,0.406399 -1.083731,1.134531 -0.389466,0.711199 -0.389466,1.625597 0,0.897465 0.389466,1.625597 0.406399,0.711199 1.083731,1.134531 0.694265,0.406399 1.54093,0.406399 z m 3.79306,1.473197 q -0.372533,0 -0.626532,-0.237066 -0.237067,-0.253999 -0.237067,-0.626532 V 76.7541 l 0.321733,-1.79493 1.405464,0.609599 v 3.776126 q 0,0.372533 -0.254,0.626532 -0.237066,0.237066 -0.609598,0.237066 z" />
      <path
         id="path867"
         style="font-style:normal;font-variant:normal;font-weight:bold;font-stretch:normal;font-size:16.9333px;font-family:Comfortaa;-inkscape-font-specification:'Comfortaa Bold';fill:#013244;fill-opacity:0.8"
         d="m 98.996398,84.153952 q -0.372533,0 -0.626532,-0.253999 Q 98.1328,83.662887 98.1328,83.290354 v -7.721585 q 0.01693,-1.337731 0.626532,-2.404528 0.609599,-1.066798 1.659468,-1.676397 1.04986,-0.626532 2.37066,-0.626532 1.33773,0 2.38759,0.626532 1.04987,0.609599 1.65947,1.676397 0.62653,1.066797 0.62653,2.404528 0,1.337731 -0.57573,2.404529 -0.5588,1.049864 -1.54093,1.676396 -0.98214,0.609599 -2.21827,0.609599 -0.99906,0 -1.84573,-0.406399 -0.82973,-0.423332 -1.422394,-1.134531 v 4.571991 q 0,0.372533 -0.237066,0.609599 -0.237066,0.253999 -0.626532,0.253999 z m 3.793062,-5.418656 q 0.8636,0 1.54093,-0.406399 0.67733,-0.423332 1.0668,-1.134531 0.40639,-0.728132 0.40639,-1.625597 0,-0.914398 -0.40639,-1.625597 -0.38947,-0.728132 -1.0668,-1.134531 -0.67733,-0.423332 -1.54093,-0.423332 -0.84667,0 -1.54093,0.423332 -0.67734,0.406399 -1.0668,1.134531 -0.389467,0.711199 -0.389467,1.625597 0,0.897465 0.389467,1.625597 0.38946,0.711199 1.0668,1.134531 0.69426,0.406399 1.54093,0.406399 z" />
    </g>
    <path
       d="m 93.095595,82.063306 c -2.342013,0.03758 -6.636019,3.613149 -10.498328,8.053156 -0.261535,-0.410908 -0.52877,-0.815444 -0.802714,-1.211559 -2.763118,-3.99538 -5.988593,3.133484 -7.586415,11.338457 -0.431937,-0.22508 -0.86568,-0.441852 -1.300967,-0.64792 -4.390673,-2.078567 -3.619604,5.70836 -0.900789,13.61308 -0.486564,0.021 -0.970682,0.0499 -1.450639,0.089 -4.841684,0.39524 -0.280577,6.75338 6.026277,12.23964 -0.410907,0.26154 -0.815444,0.52838 -1.211557,0.80232 -3.995383,2.76312 3.133482,5.98899 11.33846,7.58681 -0.225063,0.43191 -0.441873,0.86532 -0.647923,1.30057 -2.078552,4.39063 5.708429,3.61994 13.613081,0.90119 0.02104,0.48656 0.04985,0.97029 0.08902,1.45024 0.395239,4.84169 6.753389,0.28058 12.239639,-6.02627 0.26154,0.4109 0.52878,0.81583 0.80272,1.21195 2.76312,3.99538 5.98859,-3.13388 7.58642,-11.33886 0.4319,0.22506 0.86571,0.44188 1.30096,0.64793 4.39063,2.07855 3.61955,-5.70804 0.90079,-13.61269 0.48656,-0.021 0.97068,-0.0502 1.45064,-0.0894 4.84168,-0.39525 0.28057,-6.75339 -6.02628,-12.239643 0.41083,-0.261494 0.81551,-0.528426 1.21156,-0.802323 3.99535,-2.763095 -3.13356,-5.988973 -11.33846,-7.586807 0.22506,-0.431905 0.44187,-0.865321 0.64792,-1.300573 2.07855,-4.390636 -5.70843,-3.619942 -13.613078,-0.901185 -0.02104,-0.486564 -0.04983,-0.970286 -0.08902,-1.450246 -0.116991,-1.433153 -0.756594,-2.042675 -1.741317,-2.026877 z"
       inkscape:transform-center-y="-1.6064536e-05"
       style="fill:url(#linearGradient1052);fill-opacity:1;stroke-width:0.762285;stroke-linecap:square"
       id="path920" />
    <path
       id="path928"
       style="fill:#ffffff;stroke-width:0.533599;stroke-linecap:square"
       inkscape:transform-center-y="-7.564929e-05"
       d="m 99.669691,90.619042 c -1.590352,-0.398903 -5.141534,1.240756 -8.557438,3.543109 -0.102391,-0.325217 -0.20979,-0.647159 -0.323251,-0.964623 -1.144421,-3.202072 -4.61688,1.033725 -7.183767,6.292021 -0.251275,-0.23044 -0.505275,-0.455597 -0.762261,-0.67379 -2.592163,-2.200894 -3.481591,3.203921 -3.075393,9.041261 -0.332797,-0.0739 -0.66536,-0.14215 -0.996964,-0.20267 -3.345303,-0.60995 -1.413244,4.51545 1.857158,9.36761 -0.325218,0.1024 -0.64709,0.20953 -0.964551,0.32299 -3.202075,1.14443 1.033653,4.61715 6.291951,7.18403 -0.230427,0.25126 -0.455547,0.50504 -0.673721,0.762 -2.200876,2.59214 3.203907,3.48183 9.041187,3.07565 -0.07393,0.33281 -0.142087,0.6651 -0.202559,0.99672 -0.609941,3.34529 4.515459,1.41324 9.367618,-1.85716 0.10239,0.32522 0.20972,0.64743 0.32319,0.96489 1.14441,3.20207 4.61694,-1.03399 7.18383,-6.2923 0.25125,0.23043 0.50529,0.45563 0.76226,0.6738 2.59214,2.20087 3.48149,-3.20371 3.07532,-9.04099 0.33279,0.0739 0.66542,0.14192 0.99704,0.20237 3.3453,0.60995 1.41324,-4.51545 -1.85716,-9.36761 0.32516,-0.10237 0.64715,-0.20954 0.96455,-0.32298 3.20206,-1.14441 -1.03371,-4.617156 -6.29195,-7.184036 0.23043,-0.251255 0.45555,-0.505028 0.67373,-0.761992 2.20087,-2.592143 -3.20391,-3.481833 -9.0412,-3.075664 0.0739,-0.332802 0.1421,-0.665087 0.20256,-0.996708 0.18055,-0.99022 -0.14149,-1.518226 -0.810172,-1.68595 z"
       inkscape:transform-center-x="2.6937534e-05" />
    <path
       inkscape:transform-center-x="4.4715935e-05"
       d="m 102.56468,97.595015 c -1.00304,-0.557846 -3.701233,-0.09257 -6.428015,0.845287 -0.01031,-0.238446 -0.0246,-0.475583 -0.0438,-0.710792 -0.193668,-2.372414 -3.308978,-0.137504 -5.997238,2.95283 -0.128149,-0.20134 -0.259097,-0.39959 -0.393326,-0.59368 -1.353944,-1.957763 -2.934536,1.53555 -3.717457,5.55605 -0.211626,-0.11029 -0.424128,-0.21666 -0.637378,-0.31766 -2.151413,-1.01849 -1.773642,2.79708 -0.441447,6.67036 -0.238438,0.0103 -0.475489,0.0245 -0.710697,0.0437 -2.372415,0.19367 -0.1376,3.30914 2.952735,5.99741 -0.201322,0.12813 -0.399515,0.25894 -0.593587,0.39315 -1.957744,1.35393 1.535501,2.9347 5.555955,3.71762 -0.110278,0.21163 -0.216571,0.42396 -0.317539,0.63723 -1.018488,2.15141 2.797079,1.77364 6.670367,0.44145 0.01028,0.23844 0.0245,0.47575 0.0437,0.71096 0.193662,2.37241 3.309067,0.13734 5.997327,-2.953 0.12814,0.20132 0.25911,0.39961 0.39333,0.59369 1.35393,1.95773 2.93443,-1.53544 3.71736,-5.55589 0.21162,0.11029 0.4242,0.21652 0.63748,0.31747 2.15141,1.01849 1.77364,-2.79708 0.44145,-6.67035 0.23839,-0.0103 0.47553,-0.0245 0.71069,-0.0437 2.3724,-0.19365 0.13757,-3.30915 -2.95274,-5.99739 0.20134,-0.12814 0.39952,-0.25894 0.5936,-0.39316 1.95775,-1.35394 -1.5355,-2.9347 -5.55596,-3.71763 0.11029,-0.211629 0.21657,-0.423954 0.31753,-0.637225 0.30149,-0.636823 0.17939,-1.05218 -0.24234,-1.286733 z"
       inkscape:transform-center-y="0.00016594972"
       style="fill:url(#linearGradient1044);fill-opacity:1;stroke-width:0.37352;stroke-linecap:square"
       id="path930" />
  </g>
</svg>
