<?xml version="1.0" encoding="UTF-8" standalone="no"?>
<svg
   sodipodi:docname="logo_dark.svg"
   inkscape:version="1.1.2 (0a00cf5339, 2022-02-04, custom)"
   id="svg8"
   version="1.1"
   viewBox="0 0 90.646751 85.119339"
   height="85.119339mm"
   width="90.646751mm"
   xmlns:inkscape="http://www.inkscape.org/namespaces/inkscape"
   xmlns:sodipodi="http://sodipodi.sourceforge.net/DTD/sodipodi-0.dtd"
   xmlns:xlink="http://www.w3.org/1999/xlink"
   xmlns="http://www.w3.org/2000/svg"
   xmlns:svg="http://www.w3.org/2000/svg"
   xmlns:rdf="http://www.w3.org/1999/02/22-rdf-syntax-ns#"
   xmlns:cc="http://creativecommons.org/ns#"
   xmlns:dc="http://purl.org/dc/elements/1.1/">
  <defs
     id="defs2">
    <inkscape:perspective
       id="perspective16"
       inkscape:persp3d-origin="105 : -112.88067 : 1"
       inkscape:vp_z="210 : -63.380667 : 1"
       inkscape:vp_y="0 : 1000 : 0"
       inkscape:vp_x="-96.504214 : -76.047528 : 1"
       sodipodi:type="inkscape:persp3d" />
    <rect
       id="rect12"
       height="26.467363"
       width="108.78169"
       y="64.694969"
       x="25.070822" />
    <linearGradient
       inkscape:collect="always"
       id="linearGradient841">
      <stop
         style="stop-color:#75409e;stop-opacity:1"
         offset="0"
         id="stop837" />
      <stop
         style="stop-color:#e0a1c0;stop-opacity:1"
         offset="1"
         id="stop839" />
    </linearGradient>
    <linearGradient
       gradientTransform="matrix(0.76219335,0,0,0.76219335,23.138588,26.357077)"
       gradientUnits="userSpaceOnUse"
       y2="110.83423"
       x2="115.79626"
       y1="110.83423"
       x1="78.803604"
       id="linearGradient1044"
       xlink:href="#linearGradient841"
       inkscape:collect="always" />
    <linearGradient
       gradientTransform="matrix(2.8807308,0,0,2.8807308,-108.99416,-199.20348)"
       gradientUnits="userSpaceOnUse"
       y2="110.83406"
       x2="135.04771"
       y1="110.83406"
       x1="59.552288"
       id="linearGradient1052"
       xlink:href="#linearGradient841"
       inkscape:collect="always" />
  </defs>
  <sodipodi:namedview
     fit-margin-right="5"
     fit-margin-bottom="3"
     fit-margin-left="5"
     fit-margin-top="3"
     inkscape:window-maximized="1"
     inkscape:window-y="29"
     inkscape:window-x="0"
     inkscape:window-height="1023"
     inkscape:window-width="1920"
     inkscape:snap-global="false"
     showgrid="false"
     inkscape:document-rotation="0"
     inkscape:current-layer="layer1"
     inkscape:document-units="mm"
     inkscape:cy="212.85714"
     inkscape:cx="171.96429"
     inkscape:zoom="2.8"
     inkscape:pageshadow="2"
     inkscape:pageopacity="0.0"
     borderopacity="1.0"
     bordercolor="#666666"
     pagecolor="#ffffff"
     id="base"
     inkscape:pagecheckerboard="0" />
  <metadata
     id="metadata5">
    <rdf:RDF>
      <cc:Work
         rdf:about="">
        <dc:format>image/svg+xml</dc:format>
        <dc:type
           rdf:resource="http://purl.org/dc/dcmitype/StillImage" />
      </cc:Work>
    </rdf:RDF>
  </metadata>
  <g
     transform="translate(-51.976627,-79.062997)"
     id="layer1"
     inkscape:groupmode="layer"
     inkscape:label="Layer 1">
    <g
       aria-label="Inf inileap"
       transform="translate(30.212984,77.028383)"
       id="text10"
       style="font-style:normal;font-weight:normal;font-size:16.9333px;line-height:1.25;font-family:sans-serif;letter-spacing:0px;word-spacing:0px;white-space:pre;shape-inside:url(#rect12);fill:#ffffff;fill-opacity:0.98823529;stroke:none">
      <path
         d="m 27.644174,80.19156 q -0.372532,0 -0.626532,-0.253999 -0.253999,-0.254 -0.253999,-0.626533 V 67.847184 q 0,-0.389466 0.253999,-0.626532 0.254,-0.253999 0.626532,-0.253999 0.389466,0 0.626532,0.253999 0.254,0.237066 0.254,0.626532 v 11.463844 q 0,0.372533 -0.254,0.626533 -0.237066,0.253999 -0.626532,0.253999 z"
         style="font-style:normal;font-variant:normal;font-weight:bold;font-stretch:normal;font-size:16.9333px;font-family:Comfortaa;-inkscape-font-specification:'Comfortaa Bold';fill:#ffffff;fill-opacity:0.98823529"
         id="path849" />
      <path
         d="m 39.5652,80.208493 q -0.372533,0 -0.626532,-0.237066 -0.237067,-0.253999 -0.237067,-0.626532 v -4.165592 q 0,-0.965198 -0.355599,-1.574797 -0.355599,-0.609598 -0.965198,-0.897465 -0.592666,-0.304799 -1.371597,-0.304799 -0.711199,0 -1.286931,0.287866 -0.575732,0.287866 -0.914398,0.778932 -0.338666,0.474132 -0.338666,1.100664 h -1.066798 q 0,-1.066797 0.507999,-1.896529 0.524932,-0.846665 1.422397,-1.337731 0.897465,-0.491066 2.015063,-0.491066 1.168397,0 2.082796,0.507999 0.931331,0.491066 1.456263,1.456264 0.541866,0.965198 0.541866,2.370662 v 4.165592 q 0,0.372533 -0.254,0.626532 -0.237066,0.237066 -0.609598,0.237066 z m -6.959587,0 q -0.372532,0 -0.626532,-0.237066 -0.237066,-0.253999 -0.237066,-0.626532 v -7.552252 q 0,-0.389466 0.237066,-0.626532 0.254,-0.237066 0.626532,-0.237066 0.389466,0 0.626532,0.237066 0.237067,0.237066 0.237067,0.626532 v 7.552252 q 0,0.372533 -0.237067,0.626532 -0.237066,0.237066 -0.626532,0.237066 z"
         style="font-style:normal;font-variant:normal;font-weight:bold;font-stretch:normal;font-size:16.9333px;font-family:Comfortaa;-inkscape-font-specification:'Comfortaa Bold';fill:#ffffff;fill-opacity:0.98823529"
         id="path851" />
      <path
         d="m 44.289577,80.19156 q -0.321732,0 -0.575732,-0.237066 -0.253999,-0.237066 -0.253999,-0.626532 v -8.348117 q 0,-1.219198 0.474132,-2.116663 0.491066,-0.897465 1.354664,-1.38853 0.863598,-0.507999 1.99813,-0.507999 0.372532,0 0.609598,0.220133 0.254,0.220133 0.254,0.558799 0,0.321732 -0.254,0.558798 -0.237066,0.220133 -0.609598,0.220133 -0.626533,0 -1.100665,0.287866 -0.474132,0.287867 -0.745065,0.795866 -0.254,0.507999 -0.254,1.202264 v 8.51745 q 0,0.389466 -0.237066,0.626532 -0.237066,0.237066 -0.660399,0.237066 z m -1.557863,-7.467585 q -0.355599,0 -0.575732,-0.2032 -0.220133,-0.203199 -0.220133,-0.507999 0,-0.338666 0.220133,-0.541865 0.220133,-0.2032 0.575732,-0.2032 h 4.182525 q 0.355599,0 0.575732,0.2032 0.220133,0.203199 0.220133,0.541865 0,0.3048 -0.220133,0.507999 -0.220133,0.2032 -0.575732,0.2032 z"
         style="font-style:normal;font-variant:normal;font-weight:bold;font-stretch:normal;font-size:16.9333px;font-family:Comfortaa;-inkscape-font-specification:'Comfortaa Bold';fill:#ffffff;fill-opacity:0.98823529"
         id="path853" />
      <path
         d="m 51.210771,80.19156 q -0.372532,0 -0.626532,-0.237066 -0.237066,-0.254 -0.237066,-0.626532 v -7.535319 q 0,-0.389466 0.237066,-0.626532 0.254,-0.237066 0.626532,-0.237066 0.389466,0 0.626532,0.237066 0.237067,0.237066 0.237067,0.626532 v 7.535319 q 0,0.372532 -0.237067,0.626532 -0.237066,0.237066 -0.626532,0.237066 z m 0,-10.769579 q -0.457199,0 -0.795865,-0.321732 -0.321733,-0.338666 -0.321733,-0.795866 0,-0.457199 0.321733,-0.778931 0.338666,-0.338666 0.795865,-0.338666 0.457199,0 0.778932,0.338666 0.338666,0.321732 0.338666,0.778931 0,0.4572 -0.338666,0.795866 -0.321733,0.321732 -0.778932,0.321732 z"
         style="font-style:normal;font-variant:normal;font-weight:bold;font-stretch:normal;font-size:16.9333px;font-family:Comfortaa;-inkscape-font-specification:'Comfortaa Bold';fill:#ffffff;fill-opacity:0.98823529"
         id="path855" />
      <path
         d="m 63.114849,80.208493 q -0.372532,0 -0.626532,-0.237066 -0.237066,-0.253999 -0.237066,-0.626532 v -4.165592 q 0,-0.965198 -0.355599,-1.574797 -0.3556,-0.609598 -0.965198,-0.897465 -0.592666,-0.304799 -1.371598,-0.304799 -0.711198,0 -1.28693,0.287866 -0.575733,0.287866 -0.914399,0.778932 -0.338666,0.474132 -0.338666,1.100664 h -1.066798 q 0,-1.066797 0.507999,-1.896529 0.524933,-0.846665 1.422398,-1.337731 0.897465,-0.491066 2.015062,-0.491066 1.168398,0 2.082796,0.507999 0.931332,0.491066 1.456264,1.456264 0.541866,0.965198 0.541866,2.370662 v 4.165592 q 0,0.372533 -0.254,0.626532 -0.237066,0.237066 -0.609599,0.237066 z m -6.959586,0 q -0.372533,0 -0.626532,-0.237066 -0.237066,-0.253999 -0.237066,-0.626532 v -7.552252 q 0,-0.389466 0.237066,-0.626532 0.253999,-0.237066 0.626532,-0.237066 0.389466,0 0.626532,0.237066 0.237066,0.237066 0.237066,0.626532 v 7.552252 q 0,0.372533 -0.237066,0.626532 -0.237066,0.237066 -0.626532,0.237066 z"
         style="font-style:normal;font-variant:normal;font-weight:bold;font-stretch:normal;font-size:16.9333px;font-family:Comfortaa;-inkscape-font-specification:'Comfortaa Bold';fill:#ffffff;fill-opacity:0.98823529"
         id="path857" />
      <path
         d="m 67.873094,80.19156 q -0.372532,0 -0.626532,-0.237066 -0.237066,-0.254 -0.237066,-0.626532 v -7.535319 q 0,-0.389466 0.237066,-0.626532 0.254,-0.237066 0.626532,-0.237066 0.389466,0 0.626532,0.237066 0.237067,0.237066 0.237067,0.626532 v 7.535319 q 0,0.372532 -0.237067,0.626532 -0.237066,0.237066 -0.626532,0.237066 z m 0,-10.769579 q -0.457199,0 -0.795865,-0.321732 -0.321733,-0.338666 -0.321733,-0.795866 0,-0.457199 0.321733,-0.778931 0.338666,-0.338666 0.795865,-0.338666 0.457199,0 0.778932,0.338666 0.338666,0.321732 0.338666,0.778931 0,0.4572 -0.338666,0.795866 -0.321733,0.321732 -0.778932,0.321732 z"
         style="font-style:normal;font-variant:normal;font-weight:bold;font-stretch:normal;font-size:16.9333px;font-family:Comfortaa;-inkscape-font-specification:'Comfortaa Bold';fill:#ffffff;fill-opacity:0.98823529"
         id="path859" />
      <path
         d="m 74.155315,80.19156 q -0.745065,0 -1.320798,-0.406399 Q 72.258785,79.378762 71.937053,78.684496 71.61532,77.973298 71.61532,77.0589 v -9.245582 q 0,-0.372533 0.237066,-0.609599 0.237066,-0.237066 0.609599,-0.237066 0.372532,0 0.609599,0.237066 0.237066,0.237066 0.237066,0.609599 V 77.0589 q 0,0.626532 0.237066,1.032931 0.237066,0.406399 0.609599,0.406399 h 0.423332 q 0.338666,0 0.541866,0.237066 0.220133,0.237066 0.220133,0.609599 0,0.372533 -0.321733,0.609599 -0.321733,0.237066 -0.829732,0.237066 z"
         style="font-style:normal;font-variant:normal;font-weight:bold;font-stretch:normal;font-size:16.9333px;font-family:Comfortaa;-inkscape-font-specification:'Comfortaa Bold';fill:#ffffff;fill-opacity:0.98823529"
         id="path861" />
      <path
         d="m 80.877812,80.259293 q -1.405464,0 -2.506128,-0.592665 -1.083732,-0.609599 -1.710264,-1.659464 -0.609598,-1.066798 -0.609598,-2.438395 0,-1.38853 0.575732,-2.438395 0.592665,-1.066798 1.625597,-1.659463 1.032931,-0.609599 2.370662,-0.609599 1.320797,0 2.269062,0.592665 0.948265,0.575732 1.43933,1.608664 0.507999,1.015998 0.507999,2.353728 0,0.321733 -0.220133,0.541866 -0.220133,0.2032 -0.558799,0.2032 h -6.824119 v -1.354664 h 6.77332 l -0.694266,0.474132 q -0.01693,-0.846665 -0.338666,-1.507064 -0.321732,-0.677332 -0.914398,-1.066798 -0.592665,-0.389465 -1.43933,-0.389465 -0.965199,0 -1.659464,0.423332 -0.677332,0.423333 -1.032931,1.168398 -0.355599,0.728132 -0.355599,1.659463 0,0.931332 0.423332,1.659464 0.423333,0.728131 1.168398,1.151464 0.745065,0.423332 1.710263,0.423332 0.524932,0 1.066798,-0.186266 0.558799,-0.203199 0.897465,-0.457199 0.253999,-0.186266 0.541865,-0.186266 0.3048,-0.01693 0.524933,0.169333 0.287866,0.253999 0.304799,0.558799 0.01693,0.304799 -0.270933,0.524932 -0.575732,0.457199 -1.43933,0.745065 -0.846665,0.287866 -1.625597,0.287866 z"
         style="font-style:normal;font-variant:normal;font-weight:bold;font-stretch:normal;font-size:16.9333px;font-family:Comfortaa;-inkscape-font-specification:'Comfortaa Bold';fill:#ffffff;fill-opacity:0.98823529"
         id="path863" />
      <path
         d="m 90.563622,80.259293 q -1.23613,0 -2.218262,-0.609599 -0.982131,-0.626532 -1.557863,-1.676396 -0.558799,-1.066798 -0.558799,-2.404529 0,-1.337731 0.609598,-2.404528 0.626533,-1.066798 1.676397,-1.676397 1.066798,-0.626532 2.387595,-0.626532 1.320798,0 2.370662,0.626532 1.049865,0.609599 1.659464,1.676397 0.626532,1.066797 0.626532,2.404528 h -0.660399 q 0,1.337731 -0.575732,2.404529 -0.558799,1.049864 -1.54093,1.676396 -0.982132,0.609599 -2.218263,0.609599 z m 0.338666,-1.523997 q 0.863599,0 1.540931,-0.406399 0.677332,-0.423332 1.066798,-1.134531 0.389466,-0.728132 0.389466,-1.625597 0,-0.914398 -0.389466,-1.625597 -0.389466,-0.728132 -1.066798,-1.134531 -0.677332,-0.423332 -1.540931,-0.423332 -0.846665,0 -1.54093,0.423332 -0.677332,0.406399 -1.083731,1.134531 -0.389466,0.711199 -0.389466,1.625597 0,0.897465 0.389466,1.625597 0.406399,0.711199 1.083731,1.134531 0.694265,0.406399 1.54093,0.406399 z m 3.79306,1.473197 q -0.372533,0 -0.626532,-0.237066 -0.237067,-0.253999 -0.237067,-0.626532 V 76.7541 l 0.321733,-1.79493 1.405464,0.609599 v 3.776126 q 0,0.372533 -0.254,0.626532 -0.237066,0.237066 -0.609598,0.237066 z"
         style="font-style:normal;font-variant:normal;font-weight:bold;font-stretch:normal;font-size:16.9333px;font-family:Comfortaa;-inkscape-font-specification:'Comfortaa Bold';fill:#ffffff;fill-opacity:0.98823529"
         id="path865" />
      <path
         d="m 98.996398,84.153952 q -0.372533,0 -0.626532,-0.253999 Q 98.1328,83.662887 98.1328,83.290354 v -7.721585 q 0.01693,-1.337731 0.626532,-2.404528 0.609599,-1.066798 1.659468,-1.676397 1.04986,-0.626532 2.37066,-0.626532 1.33773,0 2.38759,0.626532 1.04987,0.609599 1.65947,1.676397 0.62653,1.066797 0.62653,2.404528 0,1.337731 -0.57573,2.404529 -0.5588,1.049864 -1.54093,1.676396 -0.98214,0.609599 -2.21827,0.609599 -0.99906,0 -1.84573,-0.406399 -0.82973,-0.423332 -1.422394,-1.134531 v 4.571991 q 0,0.372533 -0.237066,0.609599 -0.237066,0.253999 -0.626532,0.253999 z m 3.793062,-5.418656 q 0.8636,0 1.54093,-0.406399 0.67733,-0.423332 1.0668,-1.134531 0.40639,-0.728132 0.40639,-1.625597 0,-0.914398 -0.40639,-1.625597 -0.38947,-0.728132 -1.0668,-1.134531 -0.67733,-0.423332 -1.54093,-0.423332 -0.84667,0 -1.54093,0.423332 -0.67734,0.406399 -1.0668,1.134531 -0.389467,0.711199 -0.389467,1.625597 0,0.897465 0.389467,1.625597 0.38946,0.711199 1.0668,1.134531 0.69426,0.406399 1.54093,0.406399 z"
         style="font-style:normal;font-variant:normal;font-weight:bold;font-stretch:normal;font-size:16.9333px;font-family:Comfortaa;-inkscape-font-specification:'Comfortaa Bold';fill:#ffffff;fill-opacity:0.98823529"
         id="path867" />
    </g>
    <path
       transform="matrix(0.26458333,0,0,0.26458333,51.976627,79.062997)"
       d="M 155.41016 11.339844 C 146.55845 11.481878 130.33013 24.996215 115.73242 41.777344 C 114.74394 40.224306 113.73264 38.694393 112.69727 37.197266 C 102.25398 22.096617 90.064403 49.041813 84.025391 80.052734 C 82.392873 79.202038 80.752601 78.382355 79.107422 77.603516 C 62.512752 69.747514 65.427289 99.17858 75.703125 129.05469 C 73.864143 129.13406 72.034714 129.24285 70.220703 129.39062 C 51.921425 130.88445 69.159165 154.91492 92.996094 175.65039 C 91.443059 176.63889 89.915089 177.64823 88.417969 178.68359 C 73.317309 189.12688 100.26054 201.31842 131.27148 207.35742 C 130.42085 208.98984 129.60104 210.6284 128.82227 212.27344 C 120.96632 228.86794 150.39759 225.95528 180.27344 215.67969 C 180.35296 217.51865 180.46133 219.34617 180.60938 221.16016 C 182.10319 239.45946 206.13566 222.21973 226.87109 198.38281 C 227.85959 199.93582 228.86893 201.4677 229.9043 202.96484 C 240.34759 218.06549 252.53908 191.12032 258.57812 160.10938 C 260.2105 160.96 261.8491 161.77982 263.49414 162.55859 C 280.08865 170.41453 277.17407 140.98326 266.89844 111.10742 C 268.7374 111.02805 270.56684 110.91769 272.38086 110.76953 C 290.68012 109.27567 273.44238 85.24521 249.60547 64.509766 C 251.15821 63.521442 252.68671 62.513717 254.18359 61.478516 C 269.28413 51.035322 242.34072 38.841792 211.33008 32.802734 C 212.1807 31.170338 213.00053 29.531766 213.7793 27.886719 C 221.63523 11.292189 192.20396 14.206805 162.32812 24.482422 C 162.2486 22.64344 162.14031 20.814022 161.99219 19 C 161.55002 13.583359 159.13194 11.280135 155.41016 11.339844 z M 177.67188 43.462891 C 178.63934 43.42073 179.50647 43.487323 180.25781 43.675781 C 182.78511 44.309699 184.00271 46.306264 183.32031 50.048828 C 183.0918 51.302199 182.83399 52.558572 182.55469 53.816406 C 204.61689 52.281279 225.04286 55.642377 216.72461 65.439453 C 215.89999 66.410656 215.0506 67.370687 214.17969 68.320312 C 234.05335 78.021906 250.06126 91.147327 237.95898 95.472656 C 236.75936 95.901406 235.5434 96.306449 234.31445 96.693359 C 246.67502 115.03223 253.97764 134.40298 241.33398 132.09766 C 240.08062 131.86918 238.82224 131.61329 237.56445 131.33398 C 239.09958 153.39615 235.73847 173.82216 225.94141 165.50391 C 224.97018 164.67933 224.01015 163.82795 223.06055 162.95703 C 213.35892 182.83096 200.23353 198.84059 195.9082 186.73828 C 195.47934 185.53843 195.07449 184.32097 194.6875 183.0918 C 176.34863 195.45236 156.97791 202.75494 159.2832 190.11133 C 159.51176 188.85796 159.76941 187.60161 160.04883 186.34375 C 137.98667 187.87892 117.55868 184.51777 125.87695 174.7207 C 126.70155 173.74952 127.55292 172.78949 128.42383 171.83984 C 108.54995 162.13825 92.540247 149.0129 104.64258 144.6875 C 105.84243 144.25867 107.05794 143.85382 108.28711 143.4668 C 95.926535 125.12792 88.625866 105.75718 101.26953 108.0625 C 102.52284 108.29124 103.77929 108.54882 105.03711 108.82812 C 103.50187 86.765738 106.863 66.33791 116.66016 74.65625 C 117.63144 75.480916 118.59131 76.332171 119.54102 77.203125 C 129.24264 57.32925 142.36799 41.319556 146.69336 53.421875 C 147.12219 54.621739 147.52707 55.839193 147.91406 57.068359 C 159.21075 49.454279 170.8996 43.758014 177.67188 43.462891 z "
       inkscape:transform-center-y="-1.6064536e-05"
       style="fill:url(#linearGradient1052);fill-opacity:1;stroke-width:2.88108;stroke-linecap:square"
       id="path920" />
    <path
       id="path930"
       style="fill:url(#linearGradient1044);fill-opacity:1;stroke-width:0.37352;stroke-linecap:square"
       inkscape:transform-center-y="0.00016594972"
       d="m 102.56468,97.595015 c -1.00304,-0.557846 -3.701233,-0.09257 -6.428015,0.845287 -0.01031,-0.238446 -0.0246,-0.475583 -0.0438,-0.710792 -0.193668,-2.372414 -3.308978,-0.137504 -5.997238,2.95283 -0.128149,-0.20134 -0.259097,-0.39959 -0.393326,-0.59368 -1.353944,-1.957763 -2.934536,1.53555 -3.717457,5.55605 -0.211626,-0.11029 -0.424128,-0.21666 -0.637378,-0.31766 -2.151413,-1.01849 -1.773642,2.79708 -0.441447,6.67036 -0.238438,0.0103 -0.475489,0.0245 -0.710697,0.0437 -2.372415,0.19367 -0.1376,3.30914 2.952735,5.99741 -0.201322,0.12813 -0.399515,0.25894 -0.593587,0.39315 -1.957744,1.35393 1.535501,2.9347 5.555955,3.71762 -0.110278,0.21163 -0.216571,0.42396 -0.317539,0.63723 -1.018488,2.15141 2.797079,1.77364 6.670367,0.44145 0.01028,0.23844 0.0245,0.47575 0.0437,0.71096 0.193662,2.37241 3.309067,0.13734 5.997327,-2.953 0.12814,0.20132 0.25911,0.39961 0.39333,0.59369 1.35393,1.95773 2.93443,-1.53544 3.71736,-5.55589 0.21162,0.11029 0.4242,0.21652 0.63748,0.31747 2.15141,1.01849 1.77364,-2.79708 0.44145,-6.67035 0.23839,-0.0103 0.47553,-0.0245 0.71069,-0.0437 2.3724,-0.19365 0.13757,-3.30915 -2.95274,-5.99739 0.20134,-0.12814 0.39952,-0.25894 0.5936,-0.39316 1.95775,-1.35394 -1.5355,-2.9347 -5.55596,-3.71763 0.11029,-0.211629 0.21657,-0.423954 0.31753,-0.637225 0.30149,-0.636823 0.17939,-1.05218 -0.24234,-1.286733 z"
       inkscape:transform-center-x="4.4715935e-05" />
  </g>
</svg>
